<svg xmlns="http://www.w3.org/2000/svg" viewBox="0 0 160 95" width="800" height="475">
  <defs>
    <linearGradient gradientUnits="userSpaceOnUse" y2="346.78" x2="202.09" y1="659.7" x1="202.09" id="droplet-gradient">
      <stop stop-color="#00a8f4" offset="0"/>
      <stop stop-color="#00e5d0" offset="1"/>
    </linearGradient>
  </defs>

  <!-- Outer transform from Project Atomic logo, preserves atom-shell artwork in original coords -->
  <g transform="matrix(3.3333333,0,0,3.3333333,10,-216.66666)">
    <g transform="matrix(0.37282345,0,0,0.37282345,3.5538355,68.694645)">

      <!-- Hyprland droplet (drawn first, sits in back).
           Centered at the atom intersection (48, 36); droplet anchored on its bulb (202, 540)
           so the round body aligns with the atom's center while the tip rises between the upper orbits. -->
      <g transform="translate(48 36) scale(0.20) translate(-202 -540)">
        <path fill="url(#droplet-gradient)"
          d="M311.03,491.55c-9.09-20.56-22.42-39.71-35.29-58.22-2.38-3.41-4.62-6.64-6.84-9.87-3.15-4.6-7.42-10.49-12.36-17.31-11.29-15.59-28.92-39.62-40.84-59.36v49.42c12.28,17.62,24.2,33.49,30.57,42.78,13.94,20.33,30.09,42,39.67,63.66,28.78,65.13-11.7,128.85-82.05,129.61h-1.26c-.18,0-.35,0-.53,0-.18,0-.35,0-.53,0h-1.26c-70.35-.76-110.84-64.48-82.05-129.61,9.58-21.67,25.72-43.33,39.67-63.66,6.36-9.28,18.28-25.16,30.57-42.78v-49.42c-11.92,19.75-29.55,43.78-40.84,59.36-4.94,6.81-9.21,12.7-12.36,17.31-2.22,3.23-4.46,6.45-6.84,9.87-12.88,18.52-26.21,37.67-35.29,58.22-8.83,19.97-12.7,40.38-11.49,60.65,1.16,19.65,7.28,38.57,17.68,54.73,10.28,15.97,24.74,29.21,41.81,38.29,17.64,9.37,37.44,14.25,58.87,14.48.52,0,1.03,0,1.56,0,.18,0,.35,0,.53,0,.18,0,.35,0,.53,0,.52,0,1.03,0,1.56,0,21.43-.23,41.23-5.1,58.87-14.48,17.07-9.08,31.52-22.32,41.81-38.29,10.4-16.16,16.52-35.08,17.68-54.73,1.2-20.27-2.67-40.68-11.49-60.65Z"/>
      </g>

      <!-- Atom shells (path65 from projectatomic/atomic-site logo.svg), drawn on top so the orbits wrap the droplet -->
      <path fill="#6b6b6b"
        d="m 94.390436,37.747653 c -0.01774,-4.529381 -11.021843,-8.421101 -26.878853,-10.193195 -0.949709,-0.04175 -1.443349,0.655403 -1.456916,1.327505 -0.02714,0.533298 0.343356,1.190789 1.017545,1.300371 0.12628,0.01983 0.233775,0.04592 0.374666,0.06784 12.776195,1.330636 21.475947,3.942858 21.488471,6.957923 0.01461,2.942011 -8.225941,5.516662 -20.466751,6.907829 C 65.269852,38.906089 61.366653,33.312199 56.910326,27.665083 54.808442,25.001723 52.688817,22.465687 50.583803,20.067411 61.439707,8.0321974 71.006721,0.71735067 73.773401,2.8755905 c 2.139454,1.6687744 -0.29848,8.7268865 -5.761916,17.9912455 -0.171156,0.29848 -0.312047,1.177222 0.365273,1.633291 0.637661,0.431022 1.499705,0.193073 1.87437,-0.411193 0.05323,-0.09288 0.153415,-0.234818 0.20664,-0.327701 C 77.192353,10.028674 79.916244,0.7872743 76.684102,-1.734151 72.734983,-4.8149653 61.128704,3.0436159 48.512185,16.63176 l 0,-0.0031 c -0.1722,0.185768 -0.345444,0.369448 -0.519731,0.558346 -0.173244,-0.188898 -0.346488,-0.372578 -0.518688,-0.558346 l 0,0.0031 C 34.858291,3.0436159 23.253056,-4.8149653 19.303936,-1.734151 c -3.233185,2.52246894 -0.508251,11.762825 6.226334,23.495384 0.05323,0.09288 0.152371,0.235861 0.20664,0.327701 0.375709,0.604266 1.235665,0.842215 1.875414,0.411193 0.676277,-0.456069 0.535386,-1.335854 0.364229,-1.633291 C 22.513118,11.603521 20.075183,4.5443649 22.214638,2.8755905 24.982361,0.71735067 34.548331,8.0311537 45.405279,20.069498 43.301309,22.466731 41.18064,25.003811 39.0798,27.66717 34.622429,33.314286 30.71923,38.908177 27.520484,44.118009 15.278631,42.726842 7.0380791,40.152191 7.0537336,37.210181 c 0.013567,-3.016109 8.7122754,-5.627287 21.4884704,-6.957924 0.141935,-0.02192 0.249429,-0.04801 0.374666,-0.06784 0.674189,-0.109582 1.043636,-0.767073 1.016502,-1.300371 -0.01357,-0.672102 -0.508251,-1.369251 -1.456917,-1.327505 -15.858053,1.770007 -26.86111,5.661727 -26.8798955,10.191108 -0.018785,4.243425 9.6004095,7.951465 23.8251725,9.897847 -6.664661,11.654286 -9.337414,20.814282 -6.11884,23.325271 3.484702,2.717628 12.936916,-3.086033 23.78134,-13.826094 0.361098,-0.328745 0.58548,-1.200182 -0.07201,-1.838887 -0.421629,-0.411193 -1.177221,-0.496771 -1.699039,-0.112713 -0.204553,0.14924 -0.39867,0.341269 -0.540604,0.474855 -8.457628,8.459715 -15.382155,13.149817 -17.664588,11.36833 -2.219814,-1.728262 0.483204,-9.14121 6.380792,-18.896079 5.517705,0.590698 11.59793,0.926749 17.984984,0.95284 l 0,0 c 0.08871,0 0.177419,0 0.267171,0.001 0.06784,0 0.136717,10e-4 0.205597,10e-4 0.01565,0 0.03131,0 0.04488,0 0.0167,0 0.03131,0 0.04696,0 0.06888,0 0.136716,-10e-4 0.205596,-10e-4 0.08975,0 0.177418,-0.001 0.266127,-0.001 l 0,0 c 6.388098,-0.02505 12.467279,-0.362142 17.986028,-0.95284 5.897589,9.754869 8.60165,17.167817 6.380792,18.896079 -2.283476,1.781487 -9.206959,-2.908615 -17.663544,-11.36833 -0.142978,-0.133586 -0.337094,-0.325615 -0.541647,-0.474855 -0.521818,-0.383014 -1.277411,-0.29848 -1.697996,0.112713 -0.657491,0.638705 -0.434153,1.509098 -0.07201,1.838887 10.845468,10.741105 20.296638,16.544766 23.782383,13.827137 3.217531,-2.510989 0.546866,-11.672028 -6.118839,-23.325271 14.223719,-1.947425 23.843958,-5.654421 23.825173,-9.89889 z M 48.14065,45.20026 c -0.04905,0 -0.0981,0 -0.148196,0 -0.04801,0 -0.09706,0 -0.146109,0 -5.720171,-0.0083 -11.16169,-0.248386 -16.103308,-0.666884 2.937836,-4.538774 6.456978,-9.459519 10.41549,-14.472104 1.778356,-2.252167 3.555669,-4.402058 5.315239,-6.45489 l 0,0.0042 c 0.1722,-0.201422 0.346488,-0.408062 0.518688,-0.607396 0.173243,0.199334 0.347531,0.405974 0.519731,0.607396 l 0,-0.0042 c 1.760614,2.052832 3.537927,4.202723 5.315239,6.45489 3.959556,5.012585 7.478698,9.93333 10.416534,14.472104 -4.940574,0.418498 -10.383137,0.658535 -16.103308,0.666884 z"/>

    </g>
  </g>
</svg>
